HIERARCHY
ROOT Hips
{
	OFFSET 0.000000 8.830580 0.000000
	CHANNELS 6 Xposition Yposition Zposition Zrotation Yrotation Xrotation 
	JOINT Spine
	{
		OFFSET 0.000000 0.010000 0.000000
		CHANNELS 3 Zrotation Yrotation Xrotation
		JOINT Spine1
		{
			OFFSET 0.000000 2.459130 0.000000
			CHANNELS 3 Zrotation Yrotation Xrotation
			JOINT Neck
			{
				OFFSET 0.000000 2.484630 0.000000
				CHANNELS 3 Zrotation Yrotation Xrotation
				JOINT Head_virtual
				{
					OFFSET 0.000000 0.000000 0.000000
					CHANNELS 3 Zrotation Yrotation Xrotation
					JOINT Head
					{
						OFFSET 0.000000 0.927525 0.000000
						CHANNELS 3 Zrotation Yrotation Xrotation
						End Site
						{
							OFFSET 0.000000 0.000000 0.000000
						}
					}
				}
				JOINT LeftUpArm_virtual
				{
					OFFSET 0.000000 0.000000 0.000000
					CHANNELS 3 Zrotation Yrotation Xrotation
					JOINT LeftUpArm
					{
						OFFSET 1.248820 0.000000 0.000000
						CHANNELS 3 Zrotation Yrotation Xrotation
						JOINT LeftForeArm
						{
							OFFSET 2.597580 0.000000 0.000000
							CHANNELS 3 Zrotation Yrotation Xrotation
							JOINT LeftHand
							{
								OFFSET 2.455420 0.000000 0.000000
								CHANNELS 3 Zrotation Yrotation Xrotation
								End Site
								{
									OFFSET 0.000000 0.000000 0.000000
								}
							}
						}
					}
				}
				JOINT RightUpArm_virtual
				{
					OFFSET -0.000000 -0.000000 -0.000000
					CHANNELS 3 Zrotation Yrotation Xrotation
					JOINT RightUpArm
					{
						OFFSET -1.248820 -0.000000 -0.000000
						CHANNELS 3 Zrotation Yrotation Xrotation
						JOINT RightForeArm
						{
							OFFSET -2.597580 -0.000000 -0.000000
							CHANNELS 3 Zrotation Yrotation Xrotation
							JOINT RightHand
							{
								OFFSET -2.455420 -0.000000 -0.000000
								CHANNELS 3 Zrotation Yrotation Xrotation
								End Site
								{
									OFFSET 0.000000 0.000000 0.000000
								}
							}
						}
					}
				}
			}
		}
	}
	JOINT LeftUpLeg
	{
		OFFSET 1.271939 0.000000 0.000000
		CHANNELS 3 Zrotation Yrotation Xrotation
		JOINT LeftLowLeg
		{
			OFFSET 0.000000 -4.342910 0.000000
			CHANNELS 3 Zrotation Yrotation Xrotation
			JOINT LeftFoot
			{
				OFFSET 0.000000 -4.487670 0.000000
				CHANNELS 3 Zrotation Yrotation Xrotation
				JOINT LeftToeBase
				{
					OFFSET 0.000000 0.000000 1.515070
					CHANNELS 3 Zrotation Yrotation Xrotation
					End Site
					{
						OFFSET 0.000000 0.000000 0.000000
					}
				}
			}
		}
	}
	JOINT RightUpLeg
	{
		OFFSET -1.271939 0.000000 0.000000
		CHANNELS 3 Zrotation Yrotation Xrotation
		JOINT RightLowLeg
		{
			OFFSET 0.000000 -4.342910 0.000000
			CHANNELS 3 Zrotation Yrotation Xrotation
			JOINT RightFoot
			{
				OFFSET 0.000000 -4.487670 0.000000
				CHANNELS 3 Zrotation Yrotation Xrotation
				JOINT RightToeBase
				{
					OFFSET 0.000000 0.000000 1.515070
					CHANNELS 3 Zrotation Yrotation Xrotation
					End Site
					{
						OFFSET 0.000000 0.000000 0.000000
					}
				}
			}
		}
	}
}
MOTION
Frames: 8
Frame Time: 0.041667
-13.113837 8.861644 47.366104 -10.303433 -22.899801 10.077655 4.031231 6.482707 -12.678301 -0.791370 1.962880 14.402734 0.000000 0.000000 0.000000 34.611487 -29.343073 -12.457566 -22.471698 39.450974 -107.254685 -15.815800 1.623730 5.912140 -26.891100 1.989320 78.244202 0.000000 -78.709503 0.000000 98.242897 -40.811798 -15.214500 15.863600 -9.796240 -1.825370 52.980000 51.638599 4.820007 -180.000000 39.451996 -180.000000 -76.794800 51.608101 8.806030 1.659332 -11.972044 -4.860589 0.000000 0.000000 17.470501 -0.640813 12.137039 -10.148566 0.000000 0.000000 -11.341690 2.645809 16.894924 -23.617849 0.000000 0.000000 7.534190 6.577636 -16.785318 4.313196 0.000000 0.000000 -28.120500 
-13.154111 8.851374 47.459365 -10.221848 -22.569126 10.027954 4.337627 6.551545 -12.820535 -1.016195 1.790232 14.380670 0.000000 0.000000 0.000000 33.383452 -30.376675 -12.712296 -22.843741 38.078341 -107.590624 -16.255501 1.673730 6.068600 -26.601601 1.042250 79.097000 0.000000 -78.086800 0.000000 100.150002 -40.035702 -16.682899 16.361099 -9.843900 -1.756970 50.546799 52.993698 2.670013 180.000000 39.412003 180.000000 -73.875999 48.966801 10.226800 1.534858 -11.965227 -3.985864 0.000000 0.000000 16.979900 -0.603749 11.814648 -10.445287 0.000000 0.000000 -11.422700 2.292392 16.657215 -23.759699 0.000000 0.000000 5.611270 5.708275 -17.068281 4.536917 0.000000 0.000000 -27.585100 
-13.197477 8.837410 47.555222 -10.092325 -22.236923 9.931982 4.615326 6.662875 -12.994182 -1.253562 1.678749 14.390010 0.000000 0.000000 0.000000 32.382568 -31.537892 -13.031024 -23.505347 36.647691 -108.127229 -16.681400 1.561900 6.256800 -26.306601 0.134896 80.066902 0.000000 -77.650200 0.000000 102.102997 -38.776798 -18.219500 16.787500 -9.909140 -1.847960 47.966099 54.254002 0.072998 -180.000000 39.548996 -180.000000 -70.863197 46.907200 11.915700 1.367492 -11.891862 -3.007882 0.000000 0.000000 16.385200 -0.555429 11.473573 -10.783188 0.000000 0.000000 -11.434360 1.908719 16.561793 -23.933925 0.000000 0.000000 4.301300 5.469568 -17.446616 4.456499 0.000000 0.000000 -27.864200 
-13.244403 8.821748 47.652379 -9.904420 -21.871068 9.850710 4.826836 6.745713 -13.212707 -1.485472 1.585824 14.406337 0.000000 0.000000 0.000000 31.355619 -32.639310 -13.352384 -23.982888 35.215026 -108.758750 -17.176901 1.473110 6.494290 -25.904499 -0.749793 81.092499 0.000000 -77.431999 0.000000 104.264000 -36.886101 -19.402300 17.022900 -9.843890 -2.221840 45.407799 55.160599 -2.709015 -180.000000 39.608994 -180.000000 -67.989601 44.716202 12.979700 1.198500 -11.787526 -2.123582 0.000000 0.000000 15.932900 -0.583131 10.969589 -11.140181 0.000000 0.000000 -11.479460 1.682725 16.170035 -24.205445 0.000000 0.000000 3.699590 5.531015 -17.828394 4.178911 0.000000 0.000000 -27.586400 
-13.296053 8.804955 47.751544 -9.746744 -21.481930 9.717855 5.070574 6.840132 -13.346634 -1.763579 1.457025 14.389153 0.000000 0.000000 0.000000 30.335141 -33.596654 -13.771616 -24.177651 33.889345 -109.376356 -17.708000 1.431240 6.646800 -25.283600 -1.509210 82.006203 0.000000 -77.363502 0.000000 105.977997 -35.587002 -20.219601 17.526800 -9.797490 -2.035670 41.530300 56.639400 -6.723999 -180.000000 39.809998 -180.000000 -65.225700 42.481300 14.067000 1.092923 -11.578714 -1.154171 0.000000 0.000000 15.472900 -0.827308 10.225466 -11.533137 0.000000 0.000000 -11.721020 1.657904 15.645227 -24.463663 0.000000 0.000000 3.810680 5.738121 -18.233823 3.912963 0.000000 0.000000 -27.008700 
-13.353389 8.787442 47.854521 -9.629154 -21.144631 9.558559 5.291179 6.929727 -13.506414 -1.997295 1.354075 14.384304 0.000000 0.000000 0.000000 29.554490 -34.644479 -14.123049 -24.408185 32.560729 -109.976401 -18.234100 1.266100 6.867880 -24.527201 -1.946130 82.656998 0.000000 -77.483101 0.000000 106.956001 -34.688702 -20.424299 17.831900 -9.524600 -2.053050 37.542400 57.607498 -10.812012 -180.000000 39.947998 -180.000000 -63.101002 40.210400 14.516100 1.042150 -11.301060 -0.153752 0.000000 0.000000 15.126500 -0.785573 9.619612 -11.989334 0.000000 0.000000 -11.681660 1.855822 14.974110 -24.720667 0.000000 0.000000 4.612080 5.348744 -18.486982 3.973979 0.000000 0.000000 -26.831800 
-13.415906 8.768463 47.961905 -9.551899 -20.766865 9.403267 5.558023 6.994322 -13.714634 -2.322972 1.176171 14.445810 0.000000 0.000000 0.000000 28.560966 -35.355391 -14.605021 -24.252967 31.501869 -110.329822 -18.620300 1.221850 6.966060 -23.750000 -2.267570 83.234299 0.000000 -77.707298 0.000000 107.419998 -34.074799 -20.475000 18.093901 -9.202510 -2.073270 33.403099 58.487400 -15.013000 -180.000000 40.134995 -180.000000 -61.020199 38.150299 14.445500 1.027228 -11.279771 0.856799 0.000000 0.000000 14.859100 -0.881993 9.170682 -12.481156 0.000000 0.000000 -11.776440 2.137093 14.447454 -24.909696 0.000000 0.000000 5.777050 5.057956 -18.774083 4.137912 0.000000 0.000000 -26.886100 
-13.484657 8.747243 48.074296 -9.474398 -20.346072 9.383142 5.729181 6.970131 -14.108604 -2.505359 1.036514 14.473420 0.000000 0.000000 0.000000 28.023996 -36.276646 -15.306313 -24.411072 30.463948 -110.590144 -18.986200 1.116190 6.996790 -22.961500 -2.360870 83.761299 0.000000 -78.080704 0.000000 107.219002 -33.446098 -20.277901 18.190399 -9.003350 -2.148440 29.435400 59.255699 -19.000000 180.000000 40.397995 180.000000 -59.134800 36.301800 14.533700 1.031305 -11.483148 1.687773 0.000000 0.000000 14.771000 -0.968568 8.983384 -13.023810 0.000000 0.000000 -11.891180 2.440913 14.109461 -25.116458 0.000000 0.000000 7.137570 4.611636 -19.152664 4.435888 0.000000 0.000000 -26.495900 
